<svg width="32" height="31" viewBox="0 0 32 31" fill="none" xmlns="http://www.w3.org/2000/svg">
<path d="M7.80008 22.0875C8.93341 21.2479 10.2001 20.5859 11.6001 20.1016C13.0001 19.6172 14.4667 19.375 16.0001 19.375C17.5334 19.375 19.0001 19.6172 20.4001 20.1016C21.8001 20.5859 23.0667 21.2479 24.2001 22.0875C24.9779 21.2049 25.5834 20.2038 26.0168 19.0844C26.4501 17.9649 26.6667 16.7701 26.6667 15.5C26.6667 12.6368 25.6279 10.1988 23.5501 8.18595C21.4723 6.1731 18.9556 5.16668 16.0001 5.16668C13.0445 5.16668 10.5279 6.1731 8.45008 8.18595C6.3723 10.1988 5.33341 12.6368 5.33341 15.5C5.33341 16.7701 5.55008 17.9649 5.98341 19.0844C6.41675 20.2038 7.0223 21.2049 7.80008 22.0875ZM16.0001 16.7917C14.689 16.7917 13.5834 16.3557 12.6834 15.4839C11.7834 14.612 11.3334 13.541 11.3334 12.2708C11.3334 11.0007 11.7834 9.9297 12.6834 9.05782C13.5834 8.18595 14.689 7.75001 16.0001 7.75001C17.3112 7.75001 18.4167 8.18595 19.3167 9.05782C20.2167 9.9297 20.6667 11.0007 20.6667 12.2708C20.6667 13.541 20.2167 14.612 19.3167 15.4839C18.4167 16.3557 17.3112 16.7917 16.0001 16.7917ZM16.0001 28.4167C14.1556 28.4167 12.4223 28.0776 10.8001 27.3995C9.17786 26.7214 7.76675 25.8011 6.56675 24.6386C5.36675 23.4761 4.41675 22.109 3.71675 20.5375C3.01675 18.966 2.66675 17.2868 2.66675 15.5C2.66675 13.7132 3.01675 12.034 3.71675 10.4625C4.41675 8.89098 5.36675 7.52397 6.56675 6.36147C7.76675 5.19897 9.17786 4.27866 10.8001 3.60053C12.4223 2.92241 14.1556 2.58334 16.0001 2.58334C17.8445 2.58334 19.5779 2.92241 21.2001 3.60053C22.8223 4.27866 24.2334 5.19897 25.4334 6.36147C26.6334 7.52397 27.5834 8.89098 28.2834 10.4625C28.9834 12.034 29.3334 13.7132 29.3334 15.5C29.3334 17.2868 28.9834 18.966 28.2834 20.5375C27.5834 22.109 26.6334 23.4761 25.4334 24.6386C24.2334 25.8011 22.8223 26.7214 21.2001 27.3995C19.5779 28.0776 17.8445 28.4167 16.0001 28.4167Z" fill="#1D1B20"/>
</svg>
