<svg width="30" height="32" viewBox="0 0 30 32" fill="none" xmlns="http://www.w3.org/2000/svg">
<path d="M13.9805 29.3333C12.1164 29.3333 10.536 28.6222 9.23929 27.2C7.94256 25.7778 7.29419 24.0445 7.29419 22V8.00001C7.29419 6.53334 7.77033 5.27778 8.72262 4.23334C9.67491 3.18889 10.8197 2.66667 12.1569 2.66667C13.4942 2.66667 14.639 3.18889 15.5912 4.23334C16.5435 5.27778 17.0197 6.53334 17.0197 8.00001V20.6667C17.0197 21.6 16.7259 22.3889 16.1383 23.0333C15.5507 23.6778 14.8314 24 13.9805 24C13.1295 24 12.4102 23.6778 11.8226 23.0333C11.235 22.3889 10.9412 21.6 10.9412 20.6667V8.00001H12.7648V20.6667C12.7648 21.0445 12.8813 21.3611 13.1143 21.6167C13.3473 21.8722 13.636 22 13.9805 22C14.3249 22 14.6136 21.8722 14.8466 21.6167C15.0796 21.3611 15.1962 21.0445 15.1962 20.6667V8.00001C15.1962 7.06667 14.9024 6.27778 14.3148 5.63334C13.7272 4.98889 13.0079 4.66667 12.1569 4.66667C11.306 4.66667 10.5867 4.98889 9.99909 5.63334C9.41151 6.27778 9.11772 7.06667 9.11772 8.00001V22C9.11772 23.4667 9.59386 24.7222 10.5462 25.7667C11.4984 26.8111 12.6432 27.3333 13.9805 27.3333C15.3177 27.3333 16.4625 26.8111 17.4148 25.7667C18.3671 24.7222 18.8432 23.4667 18.8432 22V8.00001H20.6667V22C20.6667 24.0445 20.0184 25.7778 18.7216 27.2C17.4249 28.6222 15.8445 29.3333 13.9805 29.3333Z" fill="#1D1B20"/>
</svg>
