<svg width="53" height="45" viewBox="0 0 53 45" fill="none" xmlns="http://www.w3.org/2000/svg">
<path d="M15.4583 43.125L21.6417 16.6875L17.6667 18V24.375H13.25V15.5625L24.4021 11.5312C24.9174 11.3438 25.4602 11.2344 26.0307 11.2031C26.6012 11.1719 27.1441 11.2344 27.6594 11.3906C28.1747 11.5469 28.6623 11.7656 29.1224 12.0469C29.5825 12.3281 29.9597 12.6875 30.2542 13.125L32.4625 16.125C33.4194 17.4375 34.7168 18.5156 36.3547 19.3594C37.9925 20.2031 39.8604 20.625 41.9583 20.625V24.375C39.3819 24.375 37.0816 23.9219 35.0573 23.0156C33.033 22.1094 31.3031 20.9531 29.8677 19.5469L28.4875 25.3125L33.125 29.0625V43.125H28.7083V30.9375L24.0708 27.9375L20.0958 43.125H15.4583ZM29.8125 10.3125C28.5979 10.3125 27.5582 9.94531 26.6932 9.21094C25.8283 8.47656 25.3958 7.59375 25.3958 6.5625C25.3958 5.53125 25.8283 4.64844 26.6932 3.91406C27.5582 3.17969 28.5979 2.8125 29.8125 2.8125C31.0271 2.8125 32.0668 3.17969 32.9318 3.91406C33.7967 4.64844 34.2292 5.53125 34.2292 6.5625C34.2292 7.59375 33.7967 8.47656 32.9318 9.21094C32.0668 9.94531 31.0271 10.3125 29.8125 10.3125Z" fill="#1D1B20"/>
</svg>
