<svg width="36" height="38" viewBox="0 0 36 38" fill="none" xmlns="http://www.w3.org/2000/svg">
<path d="M18 33.25L15.825 31.1917C13.3 28.7903 11.2125 26.7188 9.5625 24.9771C7.9125 23.2354 6.6 21.6785 5.625 20.3062C4.65 18.9076 3.9625 17.6278 3.5625 16.4667C3.1875 15.3056 3 14.1181 3 12.9042C3 10.4236 3.7875 8.35208 5.3625 6.68958C6.9375 5.02708 8.9 4.19583 11.25 4.19583C12.55 4.19583 13.7875 4.48611 14.9625 5.06666C16.1375 5.64722 17.15 6.46528 18 7.52083C18.85 6.46528 19.8625 5.64722 21.0375 5.06666C22.2125 4.48611 23.45 4.19583 24.75 4.19583C27.1 4.19583 29.0625 5.02708 30.6375 6.68958C32.2125 8.35208 33 10.4236 33 12.9042C33 14.1181 32.8 15.3056 32.4 16.4667C32.025 17.6278 31.35 18.9076 30.375 20.3062C29.4 21.6785 28.0875 23.2354 26.4375 24.9771C24.7875 26.7188 22.7 28.7903 20.175 31.1917L18 33.25ZM18 28.975C20.4 26.7056 22.375 24.766 23.925 23.1562C25.475 21.5201 26.7 20.1083 27.6 18.9208C28.5 17.7069 29.125 16.6382 29.475 15.7146C29.825 14.7646 30 13.8278 30 12.9042C30 11.3208 29.5 10.0014 28.5 8.94583C27.5 7.89028 26.25 7.3625 24.75 7.3625C23.575 7.3625 22.4875 7.71875 21.4875 8.43125C20.4875 9.11736 19.8 10.0014 19.425 11.0833H16.575C16.2 10.0014 15.5125 9.11736 14.5125 8.43125C13.5125 7.71875 12.425 7.3625 11.25 7.3625C9.75 7.3625 8.5 7.89028 7.5 8.94583C6.5 10.0014 6 11.3208 6 12.9042C6 13.8278 6.175 14.7646 6.525 15.7146C6.875 16.6382 7.5 17.7069 8.4 18.9208C9.3 20.1083 10.525 21.5201 12.075 23.1562C13.625 24.766 15.6 26.7056 18 28.975Z" fill="#1D1B20"/>
</svg>
