<svg width="41" height="37" viewBox="0 0 41 37" fill="none" xmlns="http://www.w3.org/2000/svg">
<path d="M0 30.8333V26.5552C0 25.6816 0.242014 24.8722 0.726042 24.1271C1.21007 23.3819 1.87917 22.8167 2.73333 22.4312C3.13194 22.2514 3.51632 22.0844 3.88646 21.9302C4.28507 21.776 4.69792 21.6347 5.125 21.5062V30.8333H0ZM6.83333 20.0417C5.40972 20.0417 4.19965 19.592 3.20313 18.6927C2.2066 17.7934 1.70833 16.7014 1.70833 15.4167C1.70833 14.1319 2.2066 13.0399 3.20313 12.1406C4.19965 11.2413 5.40972 10.7917 6.83333 10.7917C8.25694 10.7917 9.46701 11.2413 10.4635 12.1406C11.4601 13.0399 11.9583 14.1319 11.9583 15.4167C11.9583 16.7014 11.4601 17.7934 10.4635 18.6927C9.46701 19.592 8.25694 20.0417 6.83333 20.0417ZM6.83333 16.9583C7.31736 16.9583 7.71597 16.817 8.02917 16.5344C8.37083 16.226 8.54167 15.8535 8.54167 15.4167C8.54167 14.9799 8.37083 14.6201 8.02917 14.3375C7.71597 14.0292 7.31736 13.875 6.83333 13.875C6.34931 13.875 5.93646 14.0292 5.59479 14.3375C5.2816 14.6201 5.125 14.9799 5.125 15.4167C5.125 15.8535 5.2816 16.226 5.59479 16.5344C5.93646 16.817 6.34931 16.9583 6.83333 16.9583ZM6.83333 30.8333V26.5167C6.83333 25.643 7.07535 24.8465 7.55938 24.1271C8.07188 23.3819 8.74097 22.8167 9.56667 22.4312C11.3319 21.6347 13.1257 21.0437 14.9479 20.6583C16.7701 20.2472 18.6208 20.0417 20.5 20.0417C22.3792 20.0417 24.2299 20.2472 26.0521 20.6583C27.8743 21.0437 29.6681 21.6347 31.4333 22.4312C32.259 22.8167 32.9139 23.3819 33.3979 24.1271C33.9104 24.8465 34.1667 25.643 34.1667 26.5167V30.8333H6.83333ZM10.25 27.75H30.75V26.5167C30.75 26.234 30.6646 25.9771 30.4938 25.7458C30.3514 25.5146 30.1521 25.3347 29.8958 25.2062C28.3583 24.5125 26.8066 23.9986 25.2406 23.6646C23.6747 23.3049 22.0944 23.125 20.5 23.125C18.9056 23.125 17.3253 23.3049 15.7594 23.6646C14.1934 23.9986 12.6417 24.5125 11.1042 25.2062C10.8479 25.3347 10.6344 25.5146 10.4635 25.7458C10.3212 25.9771 10.25 26.234 10.25 26.5167V27.75ZM20.5 18.5C18.6208 18.5 17.0122 17.8962 15.674 16.6885C14.3358 15.4809 13.6667 14.0292 13.6667 12.3333C13.6667 10.6375 14.3358 9.18575 15.674 7.97812C17.0122 6.77048 18.6208 6.16666 20.5 6.16666C22.3792 6.16666 23.9878 6.77048 25.326 7.97812C26.6642 9.18575 27.3333 10.6375 27.3333 12.3333C27.3333 14.0292 26.6642 15.4809 25.326 16.6885C23.9878 17.8962 22.3792 18.5 20.5 18.5ZM20.5 15.4167C21.4396 15.4167 22.2368 15.1212 22.8917 14.5302C23.575 13.9135 23.9167 13.1812 23.9167 12.3333C23.9167 11.4854 23.575 10.766 22.8917 10.175C22.2368 9.55832 21.4396 9.24999 20.5 9.24999C19.5604 9.24999 18.749 9.55832 18.0656 10.175C17.4108 10.766 17.0833 11.4854 17.0833 12.3333C17.0833 13.1812 17.4108 13.9135 18.0656 14.5302C18.749 15.1212 19.5604 15.4167 20.5 15.4167ZM34.1667 20.0417C32.7431 20.0417 31.533 19.592 30.5365 18.6927C29.5399 17.7934 29.0417 16.7014 29.0417 15.4167C29.0417 14.1319 29.5399 13.0399 30.5365 12.1406C31.533 11.2413 32.7431 10.7917 34.1667 10.7917C35.5903 10.7917 36.8004 11.2413 37.7969 12.1406C38.7934 13.0399 39.2917 14.1319 39.2917 15.4167C39.2917 16.7014 38.7934 17.7934 37.7969 18.6927C36.8004 19.592 35.5903 20.0417 34.1667 20.0417ZM34.1667 16.9583C34.6507 16.9583 35.0493 16.817 35.3625 16.5344C35.7042 16.226 35.875 15.8535 35.875 15.4167C35.875 14.9799 35.7042 14.6201 35.3625 14.3375C35.0493 14.0292 34.6507 13.875 34.1667 13.875C33.6826 13.875 33.2698 14.0292 32.9281 14.3375C32.6149 14.6201 32.4583 14.9799 32.4583 15.4167C32.4583 15.8535 32.6149 16.226 32.9281 16.5344C33.2698 16.817 33.6826 16.9583 34.1667 16.9583ZM35.875 30.8333V21.5062C36.3021 21.6347 36.7007 21.776 37.0708 21.9302C37.4694 22.0844 37.8681 22.2514 38.2667 22.4312C39.1208 22.8167 39.7899 23.3819 40.274 24.1271C40.758 24.8722 41 25.6816 41 26.5552V30.8333H35.875Z" fill="#1D1B20"/>
</svg>
