<svg width="39" height="36" viewBox="0 0 39 36" fill="none" xmlns="http://www.w3.org/2000/svg">
<path d="M29.25 33C27.8958 33 26.7448 32.5625 25.7969 31.6875C24.849 30.8125 24.375 29.75 24.375 28.5C24.375 28.325 24.3885 28.1438 24.4156 27.9563C24.4427 27.7688 24.4833 27.6 24.5375 27.45L13.0813 21.3C12.6208 21.675 12.1062 21.9688 11.5375 22.1813C10.9688 22.3938 10.3729 22.5 9.75 22.5C8.39583 22.5 7.24479 22.0625 6.29688 21.1875C5.34896 20.3125 4.875 19.25 4.875 18C4.875 16.75 5.34896 15.6875 6.29688 14.8125C7.24479 13.9375 8.39583 13.5 9.75 13.5C10.3729 13.5 10.9688 13.6062 11.5375 13.8188C12.1062 14.0312 12.6208 14.325 13.0813 14.7L24.5375 8.55C24.4833 8.4 24.4427 8.23125 24.4156 8.04375C24.3885 7.85625 24.375 7.675 24.375 7.5C24.375 6.25 24.849 5.1875 25.7969 4.3125C26.7448 3.4375 27.8958 3 29.25 3C30.6042 3 31.7552 3.4375 32.7031 4.3125C33.651 5.1875 34.125 6.25 34.125 7.5C34.125 8.75 33.651 9.8125 32.7031 10.6875C31.7552 11.5625 30.6042 12 29.25 12C28.6271 12 28.0312 11.8938 27.4625 11.6812C26.8938 11.4688 26.3792 11.175 25.9187 10.8L14.4625 16.95C14.5167 17.1 14.5573 17.2687 14.5844 17.4562C14.6115 17.6437 14.625 17.825 14.625 18C14.625 18.175 14.6115 18.3563 14.5844 18.5438C14.5573 18.7313 14.5167 18.9 14.4625 19.05L25.9187 25.2C26.3792 24.825 26.8938 24.5312 27.4625 24.3188C28.0312 24.1063 28.6271 24 29.25 24C30.6042 24 31.7552 24.4375 32.7031 25.3125C33.651 26.1875 34.125 27.25 34.125 28.5C34.125 29.75 33.651 30.8125 32.7031 31.6875C31.7552 32.5625 30.6042 33 29.25 33ZM29.25 9C29.7104 9 30.0964 8.85625 30.4078 8.56875C30.7193 8.28125 30.875 7.925 30.875 7.5C30.875 7.075 30.7193 6.71875 30.4078 6.43125C30.0964 6.14375 29.7104 6 29.25 6C28.7896 6 28.4036 6.14375 28.0922 6.43125C27.7807 6.71875 27.625 7.075 27.625 7.5C27.625 7.925 27.7807 8.28125 28.0922 8.56875C28.4036 8.85625 28.7896 9 29.25 9ZM9.75 19.5C10.2104 19.5 10.5964 19.3563 10.9078 19.0688C11.2193 18.7813 11.375 18.425 11.375 18C11.375 17.575 11.2193 17.2188 10.9078 16.9313C10.5964 16.6438 10.2104 16.5 9.75 16.5C9.28958 16.5 8.90365 16.6438 8.59219 16.9313C8.28073 17.2188 8.125 17.575 8.125 18C8.125 18.425 8.28073 18.7813 8.59219 19.0688C8.90365 19.3563 9.28958 19.5 9.75 19.5ZM29.25 30C29.7104 30 30.0964 29.8562 30.4078 29.5687C30.7193 29.2812 30.875 28.925 30.875 28.5C30.875 28.075 30.7193 27.7188 30.4078 27.4313C30.0964 27.1438 29.7104 27 29.25 27C28.7896 27 28.4036 27.1438 28.0922 27.4313C27.7807 27.7188 27.625 28.075 27.625 28.5C27.625 28.925 27.7807 29.2812 28.0922 29.5687C28.4036 29.8562 28.7896 30 29.25 30Z" fill="#1D1B20"/>
</svg>
